<svg width="32" height="33" viewBox="0 0 32 33" fill="none" xmlns="http://www.w3.org/2000/svg">
<path d="M22.6667 3.33951H9.33334C5.65144 3.33951 2.66667 6.32428 2.66667 10.0062V23.3395C2.66667 27.0214 5.65144 30.0062 9.33334 30.0062H22.6667C26.3486 30.0062 29.3333 27.0214 29.3333 23.3395V10.0062C29.3333 6.32428 26.3486 3.33951 22.6667 3.33951Z" stroke="black" stroke-width="2" stroke-linecap="round" stroke-linejoin="round"/>
<path d="M21.3333 15.8329C21.4979 16.9425 21.3083 18.0758 20.7917 19.0715C20.275 20.0673 19.4575 20.8747 18.4555 21.3791C17.4535 21.8834 16.3179 22.059 15.2104 21.8808C14.1028 21.7025 13.0797 21.1796 12.2865 20.3864C11.4932 19.5932 10.9703 18.57 10.7921 17.4625C10.6139 16.3549 10.7894 15.2194 11.2938 14.2174C11.7981 13.2153 12.6056 12.3978 13.6013 11.8812C14.597 11.3645 15.7303 11.175 16.84 11.3395C17.9719 11.5074 19.0198 12.0348 19.8289 12.8439C20.6381 13.6531 21.1655 14.701 21.3333 15.8329Z" stroke="black" stroke-width="2" stroke-linecap="round" stroke-linejoin="round"/>
<path d="M23.3333 9.33951H23.3467" stroke="black" stroke-width="2" stroke-linecap="round" stroke-linejoin="round"/>
</svg>
