<svg width="32" height="33" viewBox="0 0 32 33" fill="none" xmlns="http://www.w3.org/2000/svg">
<path d="M21.3333 11.3395C23.4551 11.3395 25.4899 12.1824 26.9902 13.6827C28.4905 15.1829 29.3333 17.2178 29.3333 19.3395V28.6728H24V19.3395C24 18.6323 23.7191 17.954 23.219 17.4539C22.7189 16.9538 22.0406 16.6728 21.3333 16.6728C20.6261 16.6728 19.9478 16.9538 19.4477 17.4539C18.9476 17.954 18.6667 18.6323 18.6667 19.3395V28.6728H13.3333V19.3395C13.3333 17.2178 14.1762 15.1829 15.6765 13.6827C17.1768 12.1824 19.2116 11.3395 21.3333 11.3395V11.3395Z" stroke="black" stroke-width="2" stroke-linecap="round" stroke-linejoin="round"/>
<path d="M8 12.6729H2.66666V28.6729H8V12.6729Z" stroke="black" stroke-width="2" stroke-linecap="round" stroke-linejoin="round"/>
<path d="M5.33333 8.67284C6.80609 8.67284 8 7.47893 8 6.00617C8 4.53342 6.80609 3.33951 5.33333 3.33951C3.86057 3.33951 2.66666 4.53342 2.66666 6.00617C2.66666 7.47893 3.86057 8.67284 5.33333 8.67284Z" stroke="black" stroke-width="2" stroke-linecap="round" stroke-linejoin="round"/>
</svg>
