<svg width="32" height="33" viewBox="0 0 32 33" fill="none" xmlns="http://www.w3.org/2000/svg">
<path d="M30.6667 4.67286C29.3898 5.5735 27.9761 6.26234 26.48 6.71286C25.677 5.78954 24.6098 5.13512 23.4227 4.8381C22.2356 4.54108 20.986 4.61579 19.8428 5.05213C18.6995 5.48848 17.7179 6.2654 17.0306 7.27782C16.3434 8.29024 15.9836 9.48931 16 10.7129V12.0462C13.6568 12.107 11.335 11.5873 9.24134 10.5335C7.14765 9.47963 5.34708 7.92438 3.99999 6.0062C3.99999 6.0062 -1.33334 18.0062 10.6667 23.3395C7.9207 25.2035 4.64954 26.1381 1.33333 26.0062C13.3333 32.6729 28 26.0062 28 10.6729C27.9988 10.3015 27.9631 9.93099 27.8933 9.5662C29.2541 8.22419 30.2144 6.52981 30.6667 4.67286V4.67286Z" stroke="black" stroke-width="2" stroke-linecap="round" stroke-linejoin="round"/>
</svg>
