<svg width="32" height="33" viewBox="0 0 32 33" fill="none" xmlns="http://www.w3.org/2000/svg">
<g clip-path="url(#clip0)">
<path d="M12 26.0062C5.33332 28.0062 5.33332 22.6729 2.66666 22.0062M21.3333 30.0062V24.8462C21.3833 24.2104 21.2974 23.5713 21.0813 22.9712C20.8652 22.3712 20.5239 21.8241 20.08 21.3662C24.2667 20.8995 28.6667 19.3129 28.6667 12.0329C28.6663 10.1713 27.9502 8.38111 26.6667 7.03285C27.2745 5.40419 27.2315 3.60398 26.5467 2.00618C26.5467 2.00618 24.9733 1.53952 21.3333 3.97952C18.2773 3.15128 15.056 3.15128 12 3.97952C8.35999 1.53952 6.78666 2.00618 6.78666 2.00618C6.10182 3.60398 6.05885 5.40419 6.66666 7.03285C5.37349 8.39112 4.65669 10.1975 4.66666 12.0729C4.66666 19.2995 9.06666 20.8862 13.2533 21.4062C12.8147 21.8595 12.4763 22.4001 12.2604 22.9927C12.0445 23.5854 11.9557 24.2169 12 24.8462V30.0062" stroke="black" stroke-width="2" stroke-linecap="round" stroke-linejoin="round"/>
</g>
<defs>
<clipPath id="clip0">
<rect width="32" height="32" fill="white" transform="translate(0 0.672852)"/>
</clipPath>
</defs>
</svg>
